<mxfile host="app.diagrams.net" modified="2023-09-01T03:52:42.537Z" agent="Mozilla/5.0 (Windows NT 10.0; Win64; x64) AppleWebKit/537.36 (KHTML, like Gecko) Chrome/116.0.0.0 Safari/537.36" version="21.7.1" etag="bKzkB4PFx2dQZ9t4qQic" type="github">
  <diagram name="Page-1" id="oSI1Exrv7Wg1nY1KHVac">
    <mxGraphModel>
      <root>
        <mxCell id="0" />
        <mxCell id="1" parent="0" />
      </root>
    </mxGraphModel>
  </diagram>
</mxfile>
